<svg xmlns="http://www.w3.org/2000/svg" width="346.983" height="205.354" viewBox="0 0 346.983 205.354">
    <defs>
        <style>
            .cls-14,.cls-2,.cls-4,.cls-9{fill:none;stroke-miterlimit:10}.cls-2{stroke:#9fafc9}.cls-3{fill:#e9eff4}.cls-4{stroke:#fff}.cls-5,.cls-7{fill:#fff}.cls-5{stroke:#bfd7fa;stroke-linejoin:round}.cls-6{fill:#bfd7fa}.cls-8{fill:#e0edfc}.cls-9{stroke:#5481db;stroke-width:.5px}.cls-10{fill:#a33646}.cls-11{fill:#e54a52}.cls-12{fill:#ff8080}.cls-14{stroke:#e54a52;stroke-width:11px;opacity:.75}
        </style>
    </defs>
    <g id="Group_3153" data-name="Group 3153" transform="translate(.526 .5)">
        <g id="Group_3134" data-name="Group 3134" transform="translate(4.528)">
            <path id="Path_3083" data-name="Path 3083" d="M154.821 235.051c-22.65-30.015-50.992-14.138-71.131-14.411-23.762-.323-31.064-33.226-14.5-47.235 5.709-4.827 12.89-7.545 20.068-9.639 10.632-3.1 24.729-6.119 30.669-16.616 9.541-16.861-4.757-43.969 17.649-53.616 26.459-11.392 42.7 18.228 67.057 20.17 23.613 1.883 46.178-12.349 65.592-23.95 14.846-8.871 33.956-14.878 49.06-6.452 15.184 8.47 22.62 24.922 24.2 41.662 1.268 13.433-2.888 25-4.143 38.03-.343 3.565.132 7.361 2.207 10.28 6.336 8.912 25.953 8.32 35.57 12.332 15.727 6.561 31.344 21.08 21.317 39.255-9.462 17.15-31.494 20.371-49.181 21.455-24.325 1.49-60.848-.839-87.506-.385" transform="translate(-60.231 -66.356)" style="stroke-dasharray:3.5 3.5;stroke:#9fafc9;fill:none;stroke-miterlimit:10"/>
            <path id="Path_3084" data-name="Path 3084" class="cls-2" d="M357.954 57.123a1.977 1.977 0 1 1-1.977-1.977 1.977 1.977 0 0 1 1.977 1.977z" transform="translate(-196.813 -55.146)"/>
            <path id="Path_3085" data-name="Path 3085" class="cls-2" d="M520.1 96.2a1.977 1.977 0 1 1-1.977-1.977A1.977 1.977 0 0 1 520.1 96.2z" transform="translate(-272.198 -73.313)"/>
            <path id="Path_3086" data-name="Path 3086" class="cls-2" d="M661.192 318.233a1.977 1.977 0 1 1-1.977-1.977 1.977 1.977 0 0 1 1.977 1.977z" transform="translate(-337.797 -176.544)"/>
            <path id="Path_3087" data-name="Path 3087" class="cls-2" d="M100.208 287.436a1.977 1.977 0 1 1-1.977-1.977 1.977 1.977 0 0 1 1.977 1.977z" transform="translate(-76.979 -162.225)"/>
            <rect id="Rectangle_1026" data-name="Rectangle 1026" class="cls-3" width="2.971" height="2.971" rx="1.094" transform="translate(168.618 9.221)"/>
            <rect id="Rectangle_1027" data-name="Rectangle 1027" class="cls-3" width="2.971" height="2.971" rx="1.094" transform="translate(262.162 52.282)"/>
            <rect id="Rectangle_1028" data-name="Rectangle 1028" class="cls-3" width="2.971" height="2.971" rx="1.094" transform="translate(45.529 44.564)"/>
            <path id="Line_91" data-name="Line 91" class="cls-2" transform="translate(34.058 31.429)" d="M0 0h5.649"/>
            <path id="Line_92" data-name="Line 92" class="cls-2" transform="translate(9.935 116.317)" d="M0 0h5.649"/>
            <path id="Line_93" data-name="Line 93" class="cls-2" transform="translate(263.218 42.737)" d="M0 0h7.479"/>
            <path id="Line_94" data-name="Line 94" class="cls-2" transform="translate(324.768 112.209)" d="M0 0h7.479"/>
            <path id="Line_95" data-name="Line 95" class="cls-2" transform="translate(204.434 6.941)" d="M0 0h6.456"/>
            <rect id="Rectangle_1029" data-name="Rectangle 1029" class="cls-3" width="2.971" height="2.971" rx="1.094" transform="translate(329.701 68.002)"/>
        </g>
        <g id="Group_3139" data-name="Group 3139" transform="translate(22.893 28.738)">
            <g id="Group_3135" data-name="Group 3135">
                <path id="Path_3088" data-name="Path 3088" class="cls-3" d="M260.618 252.834c-23.565-28.112-37.843-60.706-41.21-94.07-1.278-12.664-.831-25.966 6.084-37.516a2.822 2.822 0 0 1 4.2-.273c16.277 18.821 29.205 39.578 34.382 61.794 5.272 22.621 2.371 45.9-.543 68.844" transform="translate(-152.34 -114.113)"/>
                <path id="Path_3089" data-name="Path 3089" class="cls-3" d="M195.865 321.748c-10.744-37.666-37.092-66.53-70.313-82.933a1.571 1.571 0 0 0-2.1 2.015c8.985 22.624 18.734 45.568 35.855 63.134 9.062 9.3 19.915 16.763 31.3 23.069" transform="translate(-107.935 -169.205)"/>
                <path id="Path_3090" data-name="Path 3090" class="cls-3" d="M177.766 386.768c-24.945-20.778-53.2-25.63-81.761-27.7a1.344 1.344 0 0 0-1.1 2.241c9.944 10.793 22.922 18.591 36.662 23.832 14.765 5.632 30.452 8.457 46.136 10.393" transform="translate(-94.554 -225.183)"/>
                <path id="Path_3091" data-name="Path 3091" class="cls-3" d="M413.686 231.343c-1.2-31.625-3.966-52.6-12.4-83.1-1.133-4.1-6.655-15.772-10.38-21.072a1.173 1.173 0 0 0-2.105.421 234.833 234.833 0 0 0-4.822 65.365c.571 8.554 1.631 17.164 4.546 25.226 3.331 9.212 8.964 17.391 14.688 25.341" transform="translate(-228.877 -117.137)"/>
                <path id="Path_3092" data-name="Path 3092" class="cls-3" d="M430.6 254.9c4.062-25.356 1.524-51.21 4.238-76.71s11.837-52.106 33.861-68.411a3.219 3.219 0 0 1 2.508-.873c1.166.274 1.519 1.581 1.639 2.657 1.529 13.676-.326 27.464-2.571 41.06a723.751 723.751 0 0 1-20.147 87.632" transform="translate(-250.792 -108.855)"/>
                <path id="Path_3093" data-name="Path 3093" class="cls-3" d="M460.233 294.139c4.866-42.565 26.408-83.926 53.787-116.933a.677.677 0 0 1 1.184.307c7.827 42.626-10.875 89.065-46.166 114.262" transform="translate(-264.569 -140.52)"/>
                <path id="Path_3094" data-name="Path 3094" class="cls-3" d="M476.287 359.57c17.615-25.578 46.245-41.2 75.009-52.989a.494.494 0 0 1 .653.6c-9.573 39.554-41.76 57.281-72.925 61.381" transform="translate(-272.033 -200.766)"/>
                <path id="Path_3095" data-name="Path 3095" class="cls-4" d="M97.886 361.595c21.013 8.964 77.3 25.419 77.3 25.419" transform="translate(-96.103 -226.361)"/>
                <path id="Path_3096" data-name="Path 3096" class="cls-4" d="M128.259 242.546s43.052 46.982 60.449 77.408" transform="translate(-110.224 -171.012)"/>
                <path id="Path_3097" data-name="Path 3097" class="cls-4" d="M233.18 127.074s12.722 74.751 38.489 123.312" transform="translate(-159.005 -117.325)"/>
                <path id="Path_3098" data-name="Path 3098" class="cls-4" d="M398.527 140.222s6.143 61.215 9.942 96.514" transform="translate(-235.88 -123.438)"/>
                <path id="Path_3099" data-name="Path 3099" class="cls-4" d="M472.729 124.573s-28.4 73.751-30.968 119.642" transform="translate(-255.981 -116.163)"/>
                <path id="Path_3100" data-name="Path 3100" class="cls-4" d="M465.346 292.09c1.122-1.121 34.227-42.461 48.862-93.338" transform="translate(-266.946 -150.651)"/>
                <path id="Path_3101" data-name="Path 3101" class="cls-4" d="M485.2 368.607c24.458-7.61 52.031-24.252 65.191-47.195" transform="translate(-276.179 -207.679)"/>
            </g>
            <g id="Group_3136" data-name="Group 3136" transform="translate(47.436 86.465)">
                <path id="Path_3102" data-name="Path 3102" class="cls-2" d="M234.317 340.952a290.485 290.485 0 0 0-40.517-43.98c-3.066-2.706-6.245-5.413-8.34-8.925s-2.939-8.062-1.067-11.7a11.541 11.541 0 0 1 8.347-5.646 24.11 24.11 0 0 1 10.324.85 40.6 40.6 0 0 1 15.412 7.535c7.859 6.441 12.233 16.208 15.025 25.978s4.285 19.916 7.78 29.457" transform="translate(-183.278 -270.45)"/>
                <path id="Path_3103" data-name="Path 3103" class="cls-2" d="M191.342 274.782c9.335 5.624 21.793 17.4 28.624 25.89s17.689 27.733 21.145 39.169" transform="translate(-186.99 -272.464)"/>
                <path id="Path_3104" data-name="Path 3104" class="cls-2" d="M219 332.754s11.045-3.4 16.893-2.106" transform="translate(-199.849 -298.302)"/>
                <path id="Path_3105" data-name="Path 3105" class="cls-2" d="M193.119 309.448s13.056-3.154 21.128-.8" transform="translate(-187.816 -287.804)"/>
                <path id="Path_3106" data-name="Path 3106" class="cls-2" d="M225.18 288.745s1.438-9.827.011-14.754" transform="translate(-202.722 -272.096)"/>
                <path id="Path_3107" data-name="Path 3107" class="cls-2" d="M247.292 307.861s2.339-14.1.911-21.266" transform="translate(-213.003 -277.956)"/>
                <path id="Path_3108" data-name="Path 3108" class="cls-2" d="M256.914 322.166s3.559-14.831 2.729-21.151" transform="translate(-217.476 -284.66)"/>
                <path id="Path_3109" data-name="Path 3109" class="cls-2" d="M231.884 347.241s10.736-1.02 15.793.176" transform="translate(-205.839 -305.964)"/>
                <path id="Path_3110" data-name="Path 3110" class="cls-2" d="M200.645 292.281a56.762 56.762 0 0 0-17.437-.888" transform="translate(-183.208 -280.041)"/>
            </g>
            <g id="Group_3137" data-name="Group 3137" transform="translate(191.403 84.62)">
                <path id="Path_3111" data-name="Path 3111" class="cls-2" d="M460.519 346.244a302.569 302.569 0 0 1 34.18-52.065c2.692-3.3 5.5-6.621 7.059-10.586s1.654-8.783-.886-12.2c-2.162-2.911-5.91-4.342-9.535-4.387a25.113 25.113 0 0 0-10.465 2.623 42.287 42.287 0 0 0-14.561 10.355c-6.985 7.952-9.825 18.73-11.039 29.244s-1.028 21.194-3 31.592" transform="translate(-452.269 -267.003)"/>
                <path id="Path_3112" data-name="Path 3112" class="cls-2" d="M500.9 269.35c-8.64 7.362-19.448 21.574-25.028 31.458s-13.478 31.5-15.092 43.837" transform="translate(-456.224 -268.094)"/>
                <path id="Path_3113" data-name="Path 3113" class="cls-2" d="M510.593 321.127a60.252 60.252 0 0 0-21.1 3.264" transform="translate(-469.575 -292.154)"/>
                <path id="Path_3114" data-name="Path 3114" class="cls-2" d="M503.268 289.437s-3.144-9.855-2.512-15.161" transform="translate(-474.773 -270.384)"/>
                <path id="Path_3115" data-name="Path 3115" class="cls-2" d="M483.045 312.962s-4.794-14.094-4.541-21.7" transform="translate(-464.462 -278.281)"/>
                <path id="Path_3116" data-name="Path 3116" class="cls-2" d="M477.935 321.329s-5.858-14.4-6.076-21.032" transform="translate(-461.377 -282.482)"/>
                <path id="Path_3117" data-name="Path 3117" class="cls-2" d="M492.359 351.048s-11.205.772-16.2 2.858" transform="translate(-463.376 -306.078)"/>
                <path id="Path_3118" data-name="Path 3118" class="cls-2" d="M510.629 292.683s11.623-4.177 19.463-4.353" transform="translate(-479.402 -276.918)"/>
                <path id="Path_3119" data-name="Path 3119" class="cls-2" d="M515.951 268.121s-.988 7.71.158 11.254" transform="translate(-481.693 -267.523)"/>
                <path id="Path_3120" data-name="Path 3120" class="cls-2" d="M503.062 303.694s14-3.5 21.726-3.2" transform="translate(-475.884 -282.566)"/>
            </g>
            <g id="Group_3138" data-name="Group 3138" transform="translate(169.396 5.077)">
                <path id="Path_3121" data-name="Path 3121" class="cls-2" d="M423.318 218.338a363.591 363.591 0 0 1 30.887-68.18c2.581-4.421 5.3-8.886 6.409-13.883s.328-10.736-3.324-14.323c-3.108-3.053-7.825-4.055-12.138-3.433s-8.288 2.682-11.936 5.063c-6.041 3.942-12.115 12.777-16.1 24.247-4.174 12.016-8.153 44.019-4.605 65.6" transform="translate(-411.14 -118.344)"/>
                <path id="Path_3122" data-name="Path 3122" class="cls-2" d="M458.354 119.506c-8.888 10.349-19.073 29.235-23.858 42.01s-10.137 39.907-9.756 54.858" transform="translate(-417.454 -118.884)"/>
                <path id="Path_3123" data-name="Path 3123" class="cls-2" d="M424.2 224.042s-8.122-8.418-9.593-14.018" transform="translate(-412.753 -160.969)"/>
                <path id="Path_3124" data-name="Path 3124" class="cls-2" d="M435.863 145.592s1.8 13.154 6.218 22.151" transform="translate(-422.635 -131.012)"/>
                <path id="Path_3125" data-name="Path 3125" class="cls-2" d="M449.6 130.152s1.022 15.355 3.368 20.924" transform="translate(-429.021 -123.834)"/>
                <path id="Path_3126" data-name="Path 3126" class="cls-2" d="M469.756 119.506s-1.47 8.774-.793 13.958" transform="translate(-437.941 -118.884)"/>
                <path id="Path_3127" data-name="Path 3127" class="cls-2" d="M461.607 154.414A101.76 101.76 0 0 0 484.3 149.7" transform="translate(-434.604 -132.924)"/>
                <path id="Path_3128" data-name="Path 3128" class="cls-2" d="M473.792 134.071a85.731 85.731 0 0 0 14.406-4.754" transform="translate(-440.269 -123.445)"/>
                <path id="Path_3129" data-name="Path 3129" class="cls-2" d="M429.349 245.852a88.781 88.781 0 0 1 16.525-8.049" transform="translate(-419.606 -173.884)"/>
            </g>
        </g>
        <g id="Group_3142" data-name="Group 3142" transform="translate(90.515 1.173)">
            <g id="Group_3141" data-name="Group 3141">
                <path id="Path_3130" data-name="Path 3130" class="cls-5" d="M228.191 59.637a15.322 15.322 0 0 1 22.125 19.132l3.5 3.108-5.12-.254a15.327 15.327 0 1 1-20.508-21.986z" transform="translate(-220.933 -57.337)"/>
                <g id="Group_3140" data-name="Group 3140" transform="translate(7.171 4.804)">
                    <path id="Path_3131" data-name="Path 3131" class="cls-6" d="m249.093 88.381-13.284-.181-1.468-9.55 16.055.005z" transform="translate(-234.338 -72.049)"/>
                    <path id="Path_3132" data-name="Path 3132" class="cls-6" d="m250.4 72.919-16.055-.005 8.029-6.6z" transform="translate(-234.338 -66.316)"/>
                    <path id="Rectangle_1030" data-name="Rectangle 1030" class="cls-7" transform="translate(2.434 5.657)" d="M0 0h10.957v9.255H0z"/>
                    <path id="Path_3133" data-name="Path 3133" class="cls-8" d="M234.338 78.646v10.438l8.029-4.848z" transform="translate(-234.335 -72.049)"/>
                    <path id="Path_3134" data-name="Path 3134" class="cls-8" d="M257.369 78.656v10.438l-8.026-4.853z" transform="translate(-241.311 -72.053)"/>
                    <path id="Path_3135" data-name="Path 3135" class="cls-8" d="m250.39 92.426-16.055-.005 8.03-6.6z" transform="translate(-234.335 -75.386)"/>
                    <path id="Path_3136" data-name="Path 3136" class="cls-9" d="m234.335 92.421 8.03-6.6 8.025 6.6" transform="translate(-234.335 -75.386)"/>
                    <path id="Line_96" data-name="Line 96" class="cls-9" transform="translate(9.181 6.602)" d="M0 4.783 6.877 0"/>
                </g>
                <path id="Line_97" data-name="Line 97" class="cls-9" transform="translate(7.174 11.402)" d="M6.874 4.788 0 0"/>
            </g>
        </g>
        <g id="Group_3146" data-name="Group 3146" transform="translate(78.562 56.282)">
            <g id="Group_3143" data-name="Group 3143" transform="translate(38.954 47.025)">
                <path id="Path_3137" data-name="Path 3137" class="cls-10" d="M522.474 369.005a3.044 3.044 0 0 1 1.805 1.534 4.641 4.641 0 0 1 .689 2.491 1.49 1.49 0 0 0 .755-.684 3.973 3.973 0 0 0 .8-2.327 4.769 4.769 0 0 0-1.55-2.61c-.351-.333-.677-.195-1.2-.067" transform="translate(-388.128 -303.537)"/>
                <path id="Path_3138" data-name="Path 3138" class="cls-11" d="M522.071 366.758a2.4 2.4 0 0 0-2.314-.891c-2.556.732-4.013 5.422-3.319 7.2a1.945 1.945 0 0 0 1.787.622 3.952 3.952 0 0 0 1.362-.364.278.278 0 0 0 .176-.318 6.427 6.427 0 0 1 2.308-6.249z" transform="translate(-385.242 -302.908)"/>
                <path id="Path_3139" data-name="Path 3139" class="cls-10" d="M530.858 372.225a3.048 3.048 0 0 1 1.806 1.534 4.64 4.64 0 0 1 .689 2.491 1.489 1.489 0 0 0 .755-.684 3.97 3.97 0 0 0 .8-2.327 4.769 4.769 0 0 0-1.55-2.61c-.351-.333-.677-.2-1.2-.067" transform="translate(-392.026 -305.034)"/>
                <path id="Path_3140" data-name="Path 3140" class="cls-11" d="M530.456 369.978a2.4 2.4 0 0 0-2.314-.891c-2.556.732-4.013 5.422-3.318 7.2a1.943 1.943 0 0 0 1.787.622 3.934 3.934 0 0 0 1.362-.364.278.278 0 0 0 .176-.318 6.425 6.425 0 0 1 2.307-6.249z" transform="translate(-389.141 -304.405)"/>
                <path id="Path_3141" data-name="Path 3141" class="cls-10" d="M540.6 374.047a3.049 3.049 0 0 1 1.806 1.534 4.645 4.645 0 0 1 .689 2.491 1.492 1.492 0 0 0 .754-.684 3.969 3.969 0 0 0 .8-2.327 4.768 4.768 0 0 0-1.549-2.61c-.351-.333-.677-.2-1.2-.067" transform="translate(-396.558 -305.881)"/>
                <path id="Path_3142" data-name="Path 3142" class="cls-11" d="M540.2 371.8a2.4 2.4 0 0 0-2.313-.891c-2.557.732-4.013 5.422-3.319 7.2a1.944 1.944 0 0 0 1.787.622 3.945 3.945 0 0 0 1.362-.364.277.277 0 0 0 .176-.318 6.428 6.428 0 0 1 2.307-6.249z" transform="translate(-393.672 -305.252)"/>
                <path id="Path_3143" data-name="Path 3143" class="cls-10" d="M549.419 374.984a3.045 3.045 0 0 1 1.8 1.546 4.64 4.64 0 0 1 .672 2.5 1.491 1.491 0 0 0 .759-.68 3.97 3.97 0 0 0 .813-2.322 4.774 4.774 0 0 0-1.532-2.62c-.349-.336-.676-.2-1.2-.075" transform="translate(-400.656 -306.322)"/>
                <path id="Path_3144" data-name="Path 3144" class="cls-11" d="M549.006 372.745a2.4 2.4 0 0 0-2.307-.906c-2.561.715-4.049 5.4-3.366 7.183a1.944 1.944 0 0 0 1.783.634 3.939 3.939 0 0 0 1.364-.356.277.277 0 0 0 .178-.317 6.427 6.427 0 0 1 2.348-6.238z" transform="translate(-397.749 -305.685)"/>
                <path id="Path_3145" data-name="Path 3145" class="cls-10" d="M557.859 377.589a3.044 3.044 0 0 1 1.716 1.634 4.642 4.642 0 0 1 .547 2.526 1.491 1.491 0 0 0 .792-.641 3.971 3.971 0 0 0 .927-2.278 4.772 4.772 0 0 0-1.4-2.694c-.332-.353-.665-.233-1.195-.135" transform="translate(-404.58 -307.581)"/>
                <path id="Path_3146" data-name="Path 3146" class="cls-11" d="M557.367 375.409a2.4 2.4 0 0 0-2.26-1.02c-2.593.586-4.313 5.187-3.72 7.006a1.944 1.944 0 0 0 1.749.722 3.941 3.941 0 0 0 1.38-.287.276.276 0 0 0 .193-.308 6.427 6.427 0 0 1 2.658-6.113z" transform="translate(-401.517 -306.876)"/>
                <path id="Path_3147" data-name="Path 3147" class="cls-10" d="M566.836 383.112a3.044 3.044 0 0 1 1.047 2.125 4.638 4.638 0 0 1-.358 2.56 1.485 1.485 0 0 0 .964-.328 3.968 3.968 0 0 0 1.657-1.818 4.767 4.767 0 0 0-.384-3.01c-.189-.446-.544-.449-1.075-.539" transform="translate(-408.754 -310.464)"/>
                <path id="Path_3148" data-name="Path 3148" class="cls-11" d="M565.626 381.531c-.022-.729-.921-1.481-1.769-1.737-2.636-.345-5.838 3.38-5.909 5.291a1.942 1.942 0 0 0 1.392 1.281 3.943 3.943 0 0 0 1.395.207.278.278 0 0 0 .288-.222 6.425 6.425 0 0 1 4.603-4.82z" transform="translate(-404.621 -309.381)"/>
                <path id="Path_3149" data-name="Path 3149" class="cls-10" d="M575.723 387.67a3.045 3.045 0 0 1 1.047 2.125 4.638 4.638 0 0 1-.358 2.559 1.489 1.489 0 0 0 .965-.327 3.973 3.973 0 0 0 1.657-1.818 4.769 4.769 0 0 0-.384-3.011c-.189-.446-.544-.448-1.075-.539" transform="translate(-412.885 -312.583)"/>
                <path id="Path_3150" data-name="Path 3150" class="cls-11" d="M574.513 386.09c-.022-.729-.921-1.481-1.768-1.737-2.637-.345-5.838 3.38-5.909 5.292a1.944 1.944 0 0 0 1.392 1.281 3.927 3.927 0 0 0 1.395.207.276.276 0 0 0 .287-.221 6.427 6.427 0 0 1 4.603-4.822z" transform="translate(-408.754 -311.5)"/>
                <path id="Path_3151" data-name="Path 3151" class="cls-10" d="M585.058 393.285a2.906 2.906 0 0 1 .55 2.265 4.81 4.81 0 0 1-.926 2.447 1.537 1.537 0 0 0 1.019-.154 4.274 4.274 0 0 0 2.032-1.494 4.761 4.761 0 0 0 .3-3.018c-.086-.47-.433-.534-.933-.715" transform="translate(-417.051 -315.352)"/>
                <path id="Path_3152" data-name="Path 3152" class="cls-11" d="M583.714 392.045c.142-.719-.571-1.612-1.344-2.01-2.507-.8-6.482 2.3-6.981 4.162a1.815 1.815 0 0 0 1.078 1.5 3.819 3.819 0 0 0 1.321.445.294.294 0 0 0 .332-.168 6.885 6.885 0 0 1 5.594-3.929z" transform="translate(-412.73 -314.093)"/>
                <path id="Path_3153" data-name="Path 3153" class="cls-10" d="M588.7 402.612a2.894 2.894 0 0 1-.46 2.28 5.469 5.469 0 0 1-1.905 1.961 1.532 1.532 0 0 0 1.01.195 4.776 4.776 0 0 0 2.522-.713 4.111 4.111 0 0 0 1.569-2.7c.084-.47-.172-.638-.559-.971" transform="translate(-417.819 -320)"/>
                <path id="Path_3154" data-name="Path 3154" class="cls-11" d="M588.284 401.915a2.058 2.058 0 0 0-.385-2.307c-1.983-1.567-6.99-.014-8.249 1.546a1.65 1.65 0 0 0 .357 1.744 3.375 3.375 0 0 0 1.034.85.315.315 0 0 0 .379-.045 7.668 7.668 0 0 1 6.864-1.788z" transform="translate(-414.655 -318.3)"/>
                <path id="Path_3155" data-name="Path 3155" class="cls-10" d="M589.266 409.965a3.179 3.179 0 0 1-1.362 1.982 6.224 6.224 0 0 1-2.58 1.227 1.4 1.4 0 0 0 .863.5 4.931 4.931 0 0 0 2.645.133 4.728 4.728 0 0 0 2.736-2.271c.3-.394-.069-.4-.293-.832" transform="translate(-417.349 -323.419)"/>
                <path id="Path_3156" data-name="Path 3156" class="cls-11" d="M589.451 410.069a2.042 2.042 0 0 0-.074-2.331c-1.76-1.76-6.94-.734-8.4.685a1.633 1.633 0 0 0 .122 1.769 3.223 3.223 0 0 0 .913.95.316.316 0 0 0 .383-.006 7.816 7.816 0 0 1 7.056-1.067z" transform="translate(-415.232 -321.951)"/>
                <path id="Path_3157" data-name="Path 3157" class="cls-10" d="M586.186 417.488a3.565 3.565 0 0 1-1.995 1.512 6.655 6.655 0 0 1-2.885.462 1.248 1.248 0 0 0 .643.712 4.711 4.711 0 0 0 2.467.849 5.227 5.227 0 0 0 3.4-1.412c.428-.292.075-.4.016-.871" transform="translate(-415.481 -326.916)"/>
                <path id="Path_3158" data-name="Path 3158" class="cls-11" d="M586.5 417.674a2.108 2.108 0 0 0 .752-2.236c-1.052-2.154-6.337-2.592-8.224-1.641a1.669 1.669 0 0 0-.507 1.714 2.877 2.877 0 0 0 .532 1.153.309.309 0 0 0 .366.1 7.892 7.892 0 0 1 7.081.91z" transform="translate(-414.159 -324.979)"/>
                <path id="Path_3159" data-name="Path 3159" class="cls-10" d="M580.977 424.733a4.07 4.07 0 0 1-2.575.487 6.507 6.507 0 0 1-2.784-.81 1.092 1.092 0 0 0 .177.9 4.005 4.005 0 0 0 1.7 1.784 5.535 5.535 0 0 0 3.757.194c.534-.076.282-.317.487-.758" transform="translate(-412.817 -330.135)"/>
                <path id="Path_3160" data-name="Path 3160" class="cls-11" d="M580.978 424.089a2.457 2.457 0 0 0 1.878-1.646c.249-2.334-4.152-4.946-6.326-4.906a1.942 1.942 0 0 0-1.38 1.292 2.728 2.728 0 0 0-.16 1.236.27.27 0 0 0 .267.24 7.117 7.117 0 0 1 5.721 3.784z" transform="translate(-412.54 -326.939)"/>
                <path id="Path_3161" data-name="Path 3161" class="cls-10" d="M572.532 427.766a4.116 4.116 0 0 1-2.623-.206 5.982 5.982 0 0 1-2.386-1.5 1.086 1.086 0 0 0-.133.9 3.613 3.613 0 0 0 1.025 2.148 5.311 5.311 0 0 0 3.522 1.165c.536.066.377-.23.721-.6" transform="translate(-408.994 -330.902)"/>
                <path id="Path_3162" data-name="Path 3162" class="cls-11" d="M572.121 427.492a2.706 2.706 0 0 0 2.348-1.082c1.026-2.164-2.3-5.806-4.387-6.335a2.143 2.143 0 0 0-1.753.874 2.906 2.906 0 0 0-.57 1.138.247.247 0 0 0 .174.3 6.419 6.419 0 0 1 4.188 5.105z" transform="translate(-409.179 -328.118)"/>
                <path id="Path_3163" data-name="Path 3163" class="cls-10" d="M561.686 429.078a3.9 3.9 0 0 1-2.4-.961 5.276 5.276 0 0 1-1.684-2.111 1.17 1.17 0 0 0-.467.812 3.4 3.4 0 0 0 .155 2.325 4.8 4.8 0 0 0 2.881 2.129c.48.219.443-.106.906-.352" transform="translate(-404.185 -330.877)"/>
                <path id="Path_3164" data-name="Path 3164" class="cls-11" d="M561.085 429.156a2.879 2.879 0 0 0 2.625-.335c1.784-1.741.027-6.146-1.744-7.256a2.3 2.3 0 0 0-1.984.311 3.281 3.281 0 0 0-.967.908.231.231 0 0 0 .051.333 5.8 5.8 0 0 1 2.019 6.039z" transform="translate(-405.094 -328.761)"/>
                <path id="Path_3165" data-name="Path 3165" class="cls-10" d="M551.413 429.441a3.479 3.479 0 0 1-1.871-1.63 4.747 4.747 0 0 1-.75-2.493 1.329 1.329 0 0 0-.757.62 3.517 3.517 0 0 0-.769 2.23 4.228 4.228 0 0 0 1.867 2.873c.364.352.457.034.988-.055" transform="translate(-399.651 -330.556)"/>
                <path id="Path_3166" data-name="Path 3166" class="cls-11" d="M550.764 429.706a2.853 2.853 0 0 0 2.594.484c2.359-1.091 2.443-5.759 1.217-7.339a2.3 2.3 0 0 0-1.984-.311 3.711 3.711 0 0 0-1.265.557.234.234 0 0 0-.083.328 5.588 5.588 0 0 1-.479 6.281z" transform="translate(-401.281 -329.223)"/>
                <path id="Path_3167" data-name="Path 3167" class="cls-10" d="M543.208 429.441a3.48 3.48 0 0 1-1.871-1.63 4.748 4.748 0 0 1-.75-2.493 1.328 1.328 0 0 0-.757.62 3.518 3.518 0 0 0-.769 2.23 4.228 4.228 0 0 0 1.867 2.873c.364.352.457.034.988-.055" transform="translate(-395.836 -330.556)"/>
                <path id="Path_3168" data-name="Path 3168" class="cls-11" d="M542.56 429.706a2.852 2.852 0 0 0 2.593.484c2.359-1.091 2.443-5.759 1.217-7.339a2.3 2.3 0 0 0-1.984-.311 3.7 3.7 0 0 0-1.264.557.234.234 0 0 0-.083.328 5.589 5.589 0 0 1-.479 6.281z" transform="translate(-397.467 -329.223)"/>
                <path id="Path_3169" data-name="Path 3169" class="cls-10" d="M534.627 429.441a3.477 3.477 0 0 1-1.871-1.63 4.743 4.743 0 0 1-.75-2.493 1.328 1.328 0 0 0-.757.62 3.516 3.516 0 0 0-.769 2.23 4.229 4.229 0 0 0 1.867 2.873c.364.352.457.034.988-.055" transform="translate(-391.847 -330.556)"/>
                <path id="Path_3170" data-name="Path 3170" class="cls-11" d="M533.979 429.706a2.852 2.852 0 0 0 2.593.484c2.359-1.091 2.443-5.759 1.217-7.339a2.3 2.3 0 0 0-1.984-.311 3.7 3.7 0 0 0-1.265.557.234.234 0 0 0-.083.328 5.59 5.59 0 0 1-.478 6.281z" transform="translate(-393.477 -329.223)"/>
                <path id="Path_3171" data-name="Path 3171" class="cls-10" d="M526.046 429.441a3.479 3.479 0 0 1-1.871-1.63 4.739 4.739 0 0 1-.75-2.493 1.325 1.325 0 0 0-.757.62 3.515 3.515 0 0 0-.769 2.23 4.23 4.23 0 0 0 1.867 2.873c.364.352.457.034.988-.055" transform="translate(-387.857 -330.556)"/>
                <path id="Path_3172" data-name="Path 3172" class="cls-11" d="M525.4 429.706a2.853 2.853 0 0 0 2.594.484c2.359-1.091 2.442-5.759 1.216-7.339a2.3 2.3 0 0 0-1.984-.311 3.7 3.7 0 0 0-1.265.557.234.234 0 0 0-.083.328 5.59 5.59 0 0 1-.478 6.281z" transform="translate(-389.488 -329.223)"/>
                <path id="Path_3173" data-name="Path 3173" class="cls-10" d="M320.093 302.855a2.893 2.893 0 0 1-2.295.383 5.464 5.464 0 0 1-2.511-1.08 1.529 1.529 0 0 0 .179 1.013 4.779 4.779 0 0 0 1.565 2.1 4.112 4.112 0 0 0 3.079.5c.469-.088.535-.388.708-.868" transform="translate(-291.786 -273.296)"/>
                <path id="Path_3174" data-name="Path 3174" class="cls-11" d="M320.644 301.682a2.058 2.058 0 0 0 2.018-1.183c.757-2.411-2.48-6.535-4.386-7.154a1.649 1.649 0 0 0-1.5.956 3.36 3.36 0 0 0-.425 1.269.315.315 0 0 0 .178.338 7.669 7.669 0 0 1 4.115 5.774z" transform="translate(-292.293 -269.197)"/>
                <path id="Path_3175" data-name="Path 3175" class="cls-10" d="M314.138 305.687a3.177 3.177 0 0 1-2.338-.566 6.222 6.222 0 0 1-2.066-1.972 1.4 1.4 0 0 0-.16.985 4.926 4.926 0 0 0 .819 2.519 4.733 4.733 0 0 0 3.1 1.746c.476.142.348-.207.673-.57" transform="translate(-289.137 -273.757)"/>
                <path id="Path_3176" data-name="Path 3176" class="cls-11" d="M313.723 305.549a2.043 2.043 0 0 0 2.151-.9c1.016-2.272-1.79-6.745-3.635-7.6a1.633 1.633 0 0 0-1.609.745 3.227 3.227 0 0 0-.562 1.192.316.316 0 0 0 .142.355 7.82 7.82 0 0 1 3.513 6.208z" transform="translate(-289.369 -270.907)"/>
                <path id="Path_3177" data-name="Path 3177" class="cls-10" d="M306.667 305.11a3.564 3.564 0 0 1-2.125-1.324 6.665 6.665 0 0 1-1.461-2.531 1.254 1.254 0 0 0-.436.855 4.717 4.717 0 0 0 .087 2.608 5.229 5.229 0 0 0 2.533 2.676c.425.295.4-.072.819-.3" transform="translate(-285.858 -272.876)"/>
                <path id="Path_3178" data-name="Path 3178" class="cls-11" d="M306.135 305.287a2.107 2.107 0 0 0 2.357-.1c1.637-1.751.162-6.845-1.4-8.268a1.67 1.67 0 0 0-1.783.137 2.89 2.89 0 0 0-.887.909.309.309 0 0 0 .038.377 7.89 7.89 0 0 1 1.675 6.945z" transform="translate(-286.728 -270.77)"/>
                <path id="Path_3179" data-name="Path 3179" class="cls-10" d="M298.555 302.251a4.072 4.072 0 0 1-1.374-2.231 6.512 6.512 0 0 1-.236-2.89 1.091 1.091 0 0 0-.774.485 4 4 0 0 0-1.059 2.228 5.534 5.534 0 0 0 1.158 3.579c.262.472.4.151.882.185" transform="translate(-282.416 -270.958)"/>
                <path id="Path_3180" data-name="Path 3180" class="cls-11" d="M297.286 302.526a2.458 2.458 0 0 0 2.208 1.168c2.269-.6 3.139-5.642 2.327-7.659a1.939 1.939 0 0 0-1.7-.828 2.725 2.725 0 0 0-1.212.291.27.27 0 0 0-.129.335 7.114 7.114 0 0 1-1.494 6.693z" transform="translate(-283.432 -270.063)"/>
                <path id="Path_3181" data-name="Path 3181" class="cls-10" d="M291.927 295.514a4.122 4.122 0 0 1-.743-2.524 5.977 5.977 0 0 1 .55-2.764 1.082 1.082 0 0 0-.89.2 3.607 3.607 0 0 0-1.642 1.723 5.309 5.309 0 0 0 .167 3.706c.129.524.349.271.814.461" transform="translate(-279.555 -267.732)"/>
                <path id="Path_3182" data-name="Path 3182" class="cls-11" d="M289.74 295.542a2.7 2.7 0 0 0 1.849 1.808c2.387.187 4.6-4.216 4.353-6.357a2.143 2.143 0 0 0-1.441-1.326 2.911 2.911 0 0 0-1.267-.126.246.246 0 0 0-.218.27 6.419 6.419 0 0 1-3.276 5.731z" transform="translate(-279.924 -267.421)"/>
                <path id="Path_3183" data-name="Path 3183" class="cls-10" d="M284.811 286.789a3.9 3.9 0 0 1 .208-2.574 5.271 5.271 0 0 1 1.518-2.233 1.168 1.168 0 0 0-.913-.2 3.4 3.4 0 0 0-2.176.837 4.794 4.794 0 0 0-1.179 3.381c-.067.523.233.391.6.76" transform="translate(-276.446 -263.815)"/>
                <path id="Path_3184" data-name="Path 3184" class="cls-11" d="M282.254 286.3a2.879 2.879 0 0 0 1.1 2.407c2.192 1.189 5.879-1.795 6.414-3.815a2.3 2.3 0 0 0-.885-1.8 3.288 3.288 0 0 0-1.154-.655.232.232 0 0 0-.3.148 5.8 5.8 0 0 1-5.175 3.715z" transform="translate(-276.43 -264.119)"/>
                <path id="Path_3185" data-name="Path 3185" class="cls-10" d="M279.3 278.146a3.473 3.473 0 0 1 1-2.27 4.742 4.742 0 0 1 2.159-1.455 1.326 1.326 0 0 0-.816-.539 3.519 3.519 0 0 0-2.358-.074 4.227 4.227 0 0 0-2.191 2.635c-.228.452.1.447.345.927" transform="translate(-274.01 -260.034)"/>
                <path id="Path_3186" data-name="Path 3186" class="cls-11" d="M276.986 277.594a2.85 2.85 0 0 0 .306 2.621c1.741 1.93 6.224.627 7.37-1.012a2.294 2.294 0 0 0-.291-1.987 3.716 3.716 0 0 0-.906-1.043.234.234 0 0 0-.339.018 5.588 5.588 0 0 1-6.14 1.403z" transform="translate(-273.898 -261.185)"/>
                <path id="Path_3187" data-name="Path 3187" class="cls-10" d="M276.2 269.56a3.477 3.477 0 0 1 1.364-2.073 4.737 4.737 0 0 1 2.37-1.078 1.329 1.329 0 0 0-.716-.667 3.516 3.516 0 0 0-2.313-.462 4.228 4.228 0 0 0-2.6 2.236c-.3.408.027.457.187.972" transform="translate(-272.695 -256.124)"/>
                <path id="Path_3188" data-name="Path 3188" class="cls-11" d="M274.085 269.139a2.853 2.853 0 0 0-.131 2.636c1.4 2.191 6.036 1.646 7.436.219a2.3 2.3 0 0 0 .042-2.008 3.712 3.712 0 0 0-.722-1.179.234.234 0 0 0-.337-.038 5.587 5.587 0 0 1-6.288.37z" transform="translate(-272.466 -257.748)"/>
                <path id="Path_3189" data-name="Path 3189" class="cls-10" d="M275.052 261.057a3.477 3.477 0 0 1 1.364-2.073 4.743 4.743 0 0 1 2.37-1.078 1.327 1.327 0 0 0-.716-.667 3.516 3.516 0 0 0-2.313-.462 4.228 4.228 0 0 0-2.6 2.236c-.3.408.027.457.187.972" transform="translate(-272.159 -252.171)"/>
                <path id="Path_3190" data-name="Path 3190" class="cls-11" d="M272.932 260.636a2.854 2.854 0 0 0-.131 2.636c1.4 2.191 6.036 1.646 7.436.219a2.3 2.3 0 0 0 .042-2.008 3.714 3.714 0 0 0-.722-1.179.234.234 0 0 0-.337-.038 5.588 5.588 0 0 1-6.288.37z" transform="translate(-271.93 -253.794)"/>
                <path id="Path_3191" data-name="Path 3191" class="cls-10" d="M273.9 252.554a3.477 3.477 0 0 1 1.364-2.073 4.739 4.739 0 0 1 2.37-1.078 1.325 1.325 0 0 0-.716-.667 3.516 3.516 0 0 0-2.313-.462 4.228 4.228 0 0 0-2.6 2.236c-.3.408.027.457.187.972" transform="translate(-271.623 -248.218)"/>
                <path id="Path_3192" data-name="Path 3192" class="cls-11" d="M271.779 252.133a2.853 2.853 0 0 0-.131 2.635c1.4 2.192 6.036 1.646 7.436.219a2.294 2.294 0 0 0 .042-2.007 3.7 3.7 0 0 0-.722-1.179.234.234 0 0 0-.337-.038 5.587 5.587 0 0 1-6.288.37z" transform="translate(-271.394 -249.841)"/>
            </g>
            <g id="Group_3145" data-name="Group 3145">
                <path id="Path_3193" data-name="Path 3193" class="cls-12" d="M346.287 230.464V212.41h-13.536v14.24h-55.759v-14.24h-13.536v18.054c0 14.737-3.489 45.461-34.078 55.9a7.758 7.758 0 0 0-5.215 7.356v32.48a6.912 6.912 0 0 0 6.912 6.913h147.593a6.912 6.912 0 0 0 6.912-6.913v-32.479a7.758 7.758 0 0 0-5.215-7.356c-30.589-10.439-34.078-41.165-34.078-55.901z" transform="translate(-210.481 -184.545)"/>
                <path id="Path_3194" data-name="Path 3194" d="M303.8 366.736c-30.885 0-57.458-1.714-79.552-4.751a7.822 7.822 0 0 0-.086 1.14v32.483a6.912 6.912 0 0 0 6.912 6.913h147.594a6.912 6.912 0 0 0 6.912-6.913v-32.483a7.847 7.847 0 0 0-.137-1.436c-22.505 3.22-49.774 5.047-81.643 5.047z" transform="translate(-210.481 -253.949)" style="opacity:.25;fill:#e54a52"/>
                <path id="Line_98" data-name="Line 98" class="cls-14" transform="translate(52.975 28.569)" d="M0 0h13.536"/>
                <path id="Line_99" data-name="Line 99" class="cls-14" transform="translate(122.269 28.569)" d="M0 0h13.536"/>
                <path id="Path_3195" data-name="Path 3195" class="cls-12" d="M201.019 190.764V211.2h44.64v-18.653a4.17 4.17 0 0 1 4.17-4.17h88.564a4.17 4.17 0 0 1 4.17 4.17V211.2H387.2v-20.436a30.43 30.43 0 0 0-30.43-30.431H231.449a30.43 30.43 0 0 0-30.43 30.431z" transform="translate(-199.721 -160.333)"/>
                <rect id="Rectangle_1031" data-name="Rectangle 1031" class="cls-11" width="47.236" height="18.968" rx="4.527" transform="translate(0 34.359)"/>
                <rect id="Rectangle_1032" data-name="Rectangle 1032" class="cls-11" width="47.236" height="18.968" rx="4.527" transform="translate(141.545 34.359)"/>
                <path id="Path_3196" data-name="Path 3196" d="M224.163 419.4v3.042a6.912 6.912 0 0 0 6.912 6.913h147.593a6.912 6.912 0 0 0 6.912-6.913V419.4z" transform="translate(-210.481 -280.779)" style="opacity:.75;fill:#e54a52"/>
                <path id="Path_3197" data-name="Path 3197" class="cls-11" d="M343.767 261.6a35.945 35.945 0 1 0 35.945 35.945 35.945 35.945 0 0 0-35.945-35.945zm0 45.513a9.568 9.568 0 1 1 9.568-9.568 9.568 9.568 0 0 1-9.568 9.567z" transform="translate(-249.377 -207.415)"/>
                <path id="Path_3198" data-name="Path 3198" class="cls-7" d="M343.767 253.645a35.945 35.945 0 1 0 35.945 35.945 35.945 35.945 0 0 0-35.945-35.945zm0 45.513a9.568 9.568 0 1 1 9.568-9.568 9.568 9.568 0 0 1-9.568 9.568z" transform="translate(-249.377 -203.716)"/>
                <path id="Path_3199" data-name="Path 3199" class="cls-12" d="M364.122 278.282a4.159 4.159 0 1 1-2.253-5.433 4.159 4.159 0 0 1 2.253 5.433zm-10.641-3.619a4.159 4.159 0 1 1-4.547-3.73 4.158 4.158 0 0 1 4.547 3.73zm-11.09 1.824a4.159 4.159 0 1 1-5.769-1.147 4.159 4.159 0 0 1 5.769 1.147zm-8.922 6.836a4.159 4.159 0 1 1-5.628 1.707 4.159 4.159 0 0 1 5.628-1.707zm-4.648 10.234a4.159 4.159 0 1 1-4.159 4.159 4.159 4.159 0 0 1 4.159-4.159zm.724 11.216a4.159 4.159 0 1 1-1.708 5.628 4.159 4.159 0 0 1 1.709-5.628zm5.925 9.551a4.159 4.159 0 1 1 1.146 5.769 4.159 4.159 0 0 1-1.145-5.769zm9.727 5.631a4.159 4.159 0 1 1 3.729 4.548 4.158 4.158 0 0 1-3.726-4.548zm11.233.382a4.159 4.159 0 1 1 5.433 2.254 4.159 4.159 0 0 1-5.432-2.254zm10.087-4.957a4.159 4.159 0 1 1 5.854-.573 4.158 4.158 0 0 1-5.853.572z" transform="translate(-257.206 -211.745)"/>
                <path id="Path_3200" data-name="Path 3200" class="cls-11" d="M324.727 298.429a4.159 4.159 0 1 1 8.187 0 4.154 4.154 0 0 0-8.187 0zm41.219 12.524a4.155 4.155 0 0 1 7.307 1.93 4.157 4.157 0 1 0-8.189-.006 4.131 4.131 0 0 1 .882-1.924zm-30.772-4.472a4.158 4.158 0 0 0-7.763 2.68 4.155 4.155 0 0 1 8.189-.013 4.138 4.138 0 0 0-.427-2.666zm6.066 6.7a4.155 4.155 0 0 0-6.406 4.165 4.155 4.155 0 0 1 8.189.012 4.158 4.158 0 0 0-1.783-4.18zm-13.4-26.721a4.156 4.156 0 0 1 7.762 1.254 4.157 4.157 0 1 0-8.189-.013 4.144 4.144 0 0 1 .427-1.244zm34.029-13.608a4.153 4.153 0 0 0-5.685 4.551 4.2 4.2 0 0 1 .252-.872 4.156 4.156 0 0 1 7.937.882 4.158 4.158 0 0 0-2.503-4.564zm-3.184 42.048a4.159 4.159 0 0 0-2.505 4.562 4.154 4.154 0 0 1 8.189-.011 4.153 4.153 0 0 0-5.684-4.551zm-8.939 1.322a4.147 4.147 0 0 0-4.5 4.855 4.154 4.154 0 0 1 8.187-.005c.017-.1.035-.2.045-.3a4.158 4.158 0 0 0-3.732-4.546zm-.812-45.293a4.158 4.158 0 0 0-3.73 4.547c.01.1.028.2.045.3a4.154 4.154 0 0 1 8.187.005 4.148 4.148 0 0 0-4.5-4.855zm-12.312 4.407a4.157 4.157 0 0 0-1.783 4.177 4.155 4.155 0 0 1 8.189-.012 4.155 4.155 0 0 0-6.405-4.165z" transform="translate(-257.206 -211.745)"/>
                <g id="Group_3144" data-name="Group 3144" transform="translate(113.781 80.561)">
                    <path id="Path_3201" data-name="Path 3201" class="cls-10" d="m427.8 312.86-16.543-.712s.007.755.007 1.1a.823.823 0 0 0 .156.63 12.078 12.078 0 0 0 5.812 2.791 49.267 49.267 0 0 0 10.568.714z" transform="translate(-411.249 -311.478)"/>
                    <path id="Path_3202" data-name="Path 3202" class="cls-11" d="M427.794 311.385a.489.489 0 0 0-.49-.49h-15.686c-.375 0-.522.727-.2 1.019a12.078 12.078 0 0 0 5.812 2.792 49.306 49.306 0 0 0 10.568.714z" transform="translate(-411.239 -310.895)"/>
                </g>
            </g>
        </g>
        <g id="Group_3148" data-name="Group 3148" transform="translate(303.992 36.726)">
            <g id="Group_3147" data-name="Group 3147">
                <path id="Path_3203" data-name="Path 3203" class="cls-5" d="M635.263 123.969a13.163 13.163 0 0 0-11.387 22.4l-1.778 3.61 3.99-1.864a13.167 13.167 0 1 0 9.174-24.146z" transform="translate(-619.903 -123.783)"/>
                <path id="Path_3204" data-name="Path 3204" class="cls-6" d="m630.658 148.723-1.514-1.816a1.65 1.65 0 0 1 .21-2.324l1.744-1.455a1.649 1.649 0 0 1 2.324.21s.806 1.211 1.751.995a13.992 13.992 0 0 0 4.673-3.276c.887-.932-.6-2.575-.6-2.575a1.65 1.65 0 0 1 .21-2.324l1.744-1.458a1.65 1.65 0 0 1 2.324.21l1.515 1.815c3.41 4.095-11.406 15.564-14.381 11.998z" transform="translate(-624.021 -128.682)"/>
            </g>
        </g>
        <g id="Group_3152" data-name="Group 3152" transform="translate(0 40.438)">
            <g id="Group_3151" data-name="Group 3151">
                <g id="Group_3149" data-name="Group 3149">
                    <path id="Path_3205" data-name="Path 3205" class="cls-5" d="M57.638 132.581a12.392 12.392 0 0 1 17.894 15.473l2.833 2.514-4.14-.2a12.4 12.4 0 1 1-16.587-17.782z" transform="translate(-51.768 -130.721)"/>
                </g>
                <g id="Group_3150" data-name="Group 3150" transform="translate(8.783 4.333)">
                    <path id="Path_3206" data-name="Path 3206" class="cls-6" d="M74.827 157.477a1.13 1.13 0 0 1-.886 1.153 10.6 10.6 0 0 1-2.483.493c-1.906-.055-2.735-1.18-2.325-3.04.321-1.459.935-3.569 1.276-5.024.376-1.607-.2-2.121-1.8-1.671-.126.035-.254.066-.424.111a.992.992 0 0 1 .765-1.132 13.634 13.634 0 0 1 2.559-.548c1.911-.192 2.787 1.058 2.322 3.175-.249 1.136-.776 2.928-1.064 4.056a9.325 9.325 0 0 0-.3 1.656c-.045.669.26.964.93 1a3.633 3.633 0 0 0 .75-.071c.224-.035.444-.103.68-.158z" transform="translate(-68.184 -142.994)"/>
                    <path id="Path_3207" data-name="Path 3207" class="cls-6" d="M75.572 138.819a1.9 1.9 0 1 1-2.007 1.937 2.007 2.007 0 0 1 2.007-1.937z" transform="translate(-70.685 -138.819)"/>
                </g>
            </g>
        </g>
    </g>
</svg>
