<svg xmlns="http://www.w3.org/2000/svg" width="315.711" height="282.958" viewBox="0 0 315.711 282.958">
    <defs>
        <style>
            .cls-5{isolation:isolate}.cls-11{fill:#fff}.cls-5{fill:#90cd30;mix-blend-mode:multiply}
        </style>
    </defs>
    <g id="Group_5933" data-name="Group 5933" transform="translate(-1126.502 -914.511)" style="isolation:isolate">
        <g id="Group_3354" data-name="Group 3354" transform="translate(1127 914.987)">
            <g id="Group_3353" data-name="Group 3353">
                <path id="Path_3383" data-name="Path 3383" d="M152.226 47.027c51.389 10.748 98.13-41.93 150.107-33.416 5.751.942 11.488 2.722 15.759 6.094 5.573 4.4 7.988 10.972 8.8 17.363 2.885 22.813-11.282 47.935 2.53 67.72 4.231 6.061 10.678 10.774 15.869 16.282a50.425 50.425 0 0 1 .89 68.527c-6.241 6.928-14.426 12.668-19.323 20.321-14.982 23.411 4.016 58.37-19.735 75.919-9.757 7.209-23.71 8.5-36.694 8.791-7.942.177-16.315.014-23.17-3.363-9.645-4.752-13.811-14.522-21.291-21.508-11.969-11.178-31.594-14.281-49.4-12.873s-34.876 6.587-52.476 9.277c-6.119.935-12.473 1.562-18.514.317-9.616-1.978-17.064-8.416-22.478-15.378-30.3-38.979-10.755-88.807-17.389-131.948-4.551-29.608-50.245-77.779 8.339-93.608 28.883-7.804 52.057 16.02 78.176 21.483z" transform="translate(-44.456 -12.676)" style="stroke:#9fafc9;stroke-linecap:round;stroke-linejoin:round;stroke-dasharray:4 5;opacity:.6;fill:#fff"/>
            </g>
            <g id="Group_3350" data-name="Group 3350" transform="translate(57.49 67.296)">
                <path id="Path_3365" data-name="Path 3365" d="M784.705 524.18a20.939 20.939 0 1 0-24.978 18.843l-2.951 9.148 10.617-9.04a20.944 20.944 0 0 0 17.312-18.951z" transform="translate(-593.303 -432.875)" style="fill:#4799fc"/>
                <circle id="Ellipse_241" data-name="Ellipse 241" cx="11.708" cy="11.708" r="11.708" transform="matrix(.201 -.98 .98 .201 0 74.808)" style="fill:#de5915"/>
                <circle id="Ellipse_242" data-name="Ellipse 242" class="cls-5" cx="4.511" cy="4.511" r="4.511" transform="rotate(-88.683 109.677 -30.59)"/>
                <path id="Path_3366" data-name="Path 3366" d="M292.186 514.208a15.014 15.014 0 1 1-15.014-15.014 15.014 15.014 0 0 1 15.014 15.014z" transform="translate(-231.085 -431.096)" style="fill:#9900a6"/>
                <circle id="Ellipse_243" data-name="Ellipse 243" cx="26.491" cy="26.491" r="26.491" transform="rotate(-79.722 43.621 11.211)" style="fill:#5da3fb;mix-blend-mode:multiply;isolation:isolate"/>
                <path id="Path_3367" data-name="Path 3367" d="M597.678 591.555a18.164 18.164 0 1 1-18.164-18.164 18.164 18.164 0 0 1 18.164 18.164z" transform="translate(-456.516 -487.001)" style="fill:#73cad8;mix-blend-mode:multiply;isolation:isolate"/>
                <circle id="Ellipse_244" data-name="Ellipse 244" class="cls-5" cx="21.542" cy="21.542" r="21.542" transform="rotate(-83 96.203 42.847)"/>
                <circle id="Ellipse_245" data-name="Ellipse 245" cx="32.927" cy="32.927" r="32.927" transform="rotate(-81.449 85.028 19.175)" style="fill:#ef143e"/>
                <path id="Path_3368" data-name="Path 3368" d="M643.648 354.2a12.384 12.384 0 1 1-12.384-12.384 12.384 12.384 0 0 1 12.384 12.384z" transform="translate(-499.862 -312.516)" style="fill:#f4d733"/>
                <g id="Group_3346" data-name="Group 3346" transform="translate(38.113 21.034)">
                    <g id="Group_3344" data-name="Group 3344" transform="translate(0 54.56)">
                        <path id="Path_3369" data-name="Path 3369" class="cls-11" d="m350.3 578.274.4.282a1.046 1.046 0 0 0 1.149-1.624l-.417-.3a5.341 5.341 0 0 1-.531.953 4.26 4.26 0 0 1-.601.689z" transform="translate(-335.607 -565.04)"/>
                        <path id="Path_3370" data-name="Path 3370" class="cls-11" d="M291.73 531.939a5.542 5.542 0 0 0 8.4 7.162l4.675 3.308a4.557 4.557 0 0 0 1.135-1.634l-4.661-3.3a5.542 5.542 0 0 0-9.548-5.538zm7.7 5.45a3.893 3.893 0 1 1-.929-5.426 3.893 3.893 0 0 1 .931 5.426z" transform="translate(-290.711 -529.598)"/>
                    </g>
                    <g id="Group_3345" data-name="Group 3345" transform="translate(74.247 76.156)">
                        <path id="Path_3371" data-name="Path 3371" class="cls-11" d="M637.247 622.337a4.1 4.1 0 0 0-.428.023 5.24 5.24 0 0 0 .011-.333 4.828 4.828 0 0 0-9.635-.447 3.693 3.693 0 0 1 1.429 2.877h.035a2.967 2.967 0 0 1 3.027 2.9 2.866 2.866 0 0 1-1.325 2.392h6.907a3.707 3.707 0 1 0-.021-7.407z" transform="translate(-618.487 -617.199)"/>
                        <path id="Path_3372" data-name="Path 3372" class="cls-11" d="M604.549 639.963a2.444 2.444 0 0 0-2.5-2.373 2.627 2.627 0 0 0-.277.015l-.31.032.021-.311c0-.074.007-.148.007-.219a3.172 3.172 0 0 0-6.334-.257l-.022.275-.273-.036a2.678 2.678 0 0 0-.349-.023 2.635 2.635 0 0 0-.014 5.269h7.565a2.445 2.445 0 0 0 2.486-2.372z" transform="translate(-591.873 -629.81)"/>
                    </g>
                    <path id="Path_3373" data-name="Path 3373" class="cls-11" d="m333.864 308.355-21.5 8.955a.816.816 0 0 0 .02 1.515l4.074 1.57 2.629 6.571a.816.816 0 0 0 1.335.274l3.145-3.145 5.872 4.667a.816.816 0 0 0 1.3-.462l4.229-19.014a.817.817 0 0 0-1.104-.931zm-13.244 12.589-.946 3.568-1.749-4.373 10.3-6.127z" transform="translate(-306.649 -308.291)"/>
                </g>
                <path id="Path_3375" data-name="Path 3375" class="cls-11" d="M182.9 476.471c0 2.656-4.809 6.026-4.809 6.026s-4.808-3.37-4.808-6.026 3.5-3.081 4.808-.816c1.223-2.221 4.809-1.84 4.809.816z" transform="translate(-164.118 -412.255)"/>
                <g id="Group_3347" data-name="Group 3347" transform="translate(76.445 58.912)">
                    <path id="Path_3376" data-name="Path 3376" class="cls-11" d="m467.607 461.995-13.4-.06a7.92 7.92 0 0 0-7.947 7.876l-.06 13.4a7.92 7.92 0 0 0 7.876 7.946l13.4.06a7.92 7.92 0 0 0 7.947-7.876l.06-13.4a7.92 7.92 0 0 0-7.876-7.946zm-6.8 22.574a7.991 7.991 0 1 1 8.027-7.955 8 8 0 0 1-8.034 7.955zm8.246-14.061a2.361 2.361 0 1 1 2.372-2.351 2.364 2.364 0 0 1-2.376 2.351z" transform="translate(-446.197 -461.935)"/>
                    <path id="Path_3377" data-name="Path 3377" class="cls-11" d="M486.433 495.866a6.278 6.278 0 1 0 6.25 6.306 6.285 6.285 0 0 0-6.25-6.306z" transform="translate(-471.762 -487.501)"/>
                    <path id="Path_3378" data-name="Path 3378" class="cls-11" d="M536.958 484.5a.648.648 0 1 0 .645.651.649.649 0 0 0-.645-.651z" transform="translate(-514.092 -478.939)"/>
                </g>
                <path id="Path_110" data-name="Path 110" class="cls-11" d="M372.644 646.4a10.314 10.314 0 0 0-8.35 16.359L363 666.588l3.967-1.267a10.314 10.314 0 1 0 5.672-18.923zm6 14.568a2.91 2.91 0 0 1-2.024 1.456c-.539.115-1.243.206-3.61-.774a12.92 12.92 0 0 1-5.138-4.542 5.889 5.889 0 0 1-1.225-3.111 3.292 3.292 0 0 1 1.057-2.51 1.5 1.5 0 0 1 1.054-.37c.129 0 .243.006.346.012.3.013.455.031.655.509.249.6.855 2.079.927 2.232a.613.613 0 0 1 .044.558 1.784 1.784 0 0 1-.334.473c-.152.175-.3.309-.449.5-.139.164-.3.339-.121.644a9.152 9.152 0 0 0 1.676 2.08 7.58 7.58 0 0 0 2.416 1.489.652.652 0 0 0 .727-.115 12.459 12.459 0 0 0 .806-1.068.575.575 0 0 1 .74-.224c.279.1 1.752.825 2.055.976s.5.224.576.352a2.568 2.568 0 0 1-.177 1.435z" transform="translate(-306.565 -542.008)"/>
                <g id="Group_3348" data-name="Group 3348" transform="translate(164.06 76.998)">
                    <path id="Path_3379" data-name="Path 3379" class="cls-11" d="M814.038 535.3h-3.1c-3.487 0-5.741 2.312-5.741 5.891v2.709h-3.121a.488.488 0 0 0-.488.488v3.935a.488.488 0 0 0 .488.488h3.121v9.931a.488.488 0 0 0 .488.488h4.072a.488.488 0 0 0 .488-.488v-9.931h3.649a.488.488 0 0 0 .488-.488v-3.935a.488.488 0 0 0-.488-.488h-3.651v-2.3c0-1.107.264-1.669 1.706-1.669h2.091a.488.488 0 0 0 .488-.488v-3.654a.488.488 0 0 0-.49-.489z" transform="translate(-801.583 -535.296)"/>
                </g>
                <g id="Group_3349" data-name="Group 3349" transform="translate(125.15 37.649)">
                    <path id="Path_3380" data-name="Path 3380" class="cls-11" d="m643.893 380.363-.14 5.99a.778.778 0 0 0 .772.784l11.149.26a.778.778 0 0 0 .807-.747l.14-5.985-6.446 3.272z" transform="translate(-643.753 -379.21)"/>
                    <path id="Path_3381" data-name="Path 3381" class="cls-11" d="m656.305 375.947-11.15-.26a.79.79 0 0 0-.808.771v.132l6.291 3.3 6.438-3v-.132a.789.789 0 0 0-.771-.811z" transform="translate(-644.199 -375.686)"/>
                </g>
            </g>
        </g>
    </g>
</svg>
